<svg style="display:none;" xmlns="http://www.w3.org/2000/svg" xmlns:xlink="http://www.w3.org/1999/xlink"><defs><symbol viewBox="0 0 32 32" id="account">
    <path d="M7 4v2h3.563L4.28 12.281l1.44 1.439L12 7.438V11h2V4zm19 0v24h2V4zm-4 4v20h2V8zm-4 4v16h2V12zm-4 4v12h2V16zm-4 4v8h2v-8zm-4 4v4h2v-4z" />
</symbol><symbol viewBox="0 0 50 50" id="add">
    <path d="M25 2C12.31 2 2 12.31 2 25s10.31 23 23 23 23-10.31 23-23S37.69 2 25 2zm0 2c11.61 0 21 9.39 21 21s-9.39 21-21 21S4 36.61 4 25 13.39 4 25 4zm-.016 12.986A1 1 0 0024 18v6h-6a1 1 0 100 2h6v6a1 1 0 102 0v-6h6a1 1 0 100-2h-6v-6a1 1 0 00-1.016-1.014z" />
</symbol><symbol viewBox="0 0 32 32" id="address-book">
    <path d="M6 4v5H5v2h3V6h16v20H8v-3H6v5h20V4zm10 6c-2.2 0-4 1.8-4 4 0 1.113.477 2.117 1.219 2.844A5.041 5.041 0 0011 21h2a3 3 0 016 0h2a5.041 5.041 0 00-2.219-4.156C19.523 16.117 20 15.114 20 14c0-2.2-1.8-4-4-4zM6 12v2H5v2h3v-4zm10 0c1.117 0 2 .883 2 2s-.883 2-2 2-2-.883-2-2 .883-2 2-2zM6 17v2H5v2h3v-4z" />
</symbol><symbol viewBox="0 0 50 50" id="approve">
    <path d="M25 2C12.317 2 2 12.317 2 25s10.317 23 23 23 23-10.317 23-23c0-4.56-1.34-8.81-3.637-12.389l-1.369 1.618A20.846 20.846 0 0146 25c0 11.579-9.421 21-21 21S4 36.579 4 25 13.421 4 25 4c5.443 0 10.394 2.1 14.129 5.51l1.309-1.545A22.912 22.912 0 0025 2zm18.236 5.754l-19.322 22.8-8.133-7.585-1.363 1.463 9.666 9.015 20.68-24.4-1.528-1.293z" />
</symbol><symbol viewBox="0 0 32 32" id="arrow-collapse">
    <path d="M16 6.594l-.719.687-12.5 12.5L4.22 21.22 16 9.437 27.781 21.22l1.438-1.438-12.5-12.5L16 6.594z" />
</symbol><symbol viewBox="0 0 32 32" id="arrow-expand">
    <path d="M4.219 10.781L2.78 12.22l12.5 12.5.719.687.719-.687 12.5-12.5-1.438-1.438L16 22.562z" />
</symbol><symbol viewBox="0 0 32 32" id="arrow-left">
    <path d="M10.813 9.281L4.093 16l6.72 6.719 1.406-1.438L7.938 17H28v-2H7.937l4.282-4.281z" />
</symbol><symbol viewBox="0 0 32 32" id="arrow-right">
    <path d="M21.188 9.281L19.78 10.72 24.063 15H4v2h20.063l-4.282 4.281 1.407 1.438L27.905 16z" />
</symbol><symbol viewBox="0 0 32 32" id="business">
    <path d="M14 3c-.523 0-1.059.184-1.438.563C12.184 3.94 12 4.476 12 5v1H3v20h26V6h-9V5c0-.523-.184-1.059-.563-1.438C19.06 3.184 18.523 3 18 3zm0 2h4v1h-4zM5 8h22v6c0 1.191-.809 2-2 2H7c-1.191 0-2-.809-2-2zm4 4v3h2v-3zm12 0v3h2v-3zM5 17.438c.59.34 1.27.562 2 .562h18c.73 0 1.41-.223 2-.563V24H5z" />
</symbol><symbol viewBox="0 0 50 50" id="cancel">
    <path d="M25 3C12.862 3 3 12.862 3 25s9.862 22 22 22 22-9.862 22-22S37.138 3 25 3zm0 2c11.058 0 20 8.942 20 20s-8.942 20-20 20S5 36.058 5 25 13.942 5 25 5zm-8.01 10.99a1 1 0 00-.697 1.717L23.586 25l-7.293 7.293a1 1 0 101.414 1.414L25 26.414l7.293 7.293a1 1 0 101.414-1.414L26.414 25l7.293-7.293a1 1 0 00-.727-1.717 1 1 0 00-.687.303L25 23.586l-7.293-7.293a1 1 0 00-.717-.303z" />
</symbol><symbol viewBox="0 0 490.667 490.667" id="channel">
    <path d="M405.333 342.421V288c0-29.397-23.936-53.333-53.333-53.333h-96v-86.421c36.096-5.227 64-36.075 64-73.579C320 33.493 286.507 0 245.333 0s-74.667 33.493-74.667 74.667c0 37.525 27.904 68.352 64 73.579v86.421h-96c-29.397 0-53.333 23.936-53.333 53.333v54.421c-36.096 5.227-64 36.075-64 73.579 0 41.173 33.493 74.667 74.667 74.667s74.667-33.493 74.667-74.667c0-37.525-27.904-68.352-64-73.579V288c0-17.643 14.357-32 32-32H352c17.643 0 32 14.357 32 32v54.421c-36.096 5.227-64 36.075-64 73.579 0 41.173 33.493 74.667 74.667 74.667s74.667-33.493 74.667-74.667c-.001-37.525-27.905-68.352-64.001-73.579zm-256 73.579c0 29.397-23.936 53.333-53.333 53.333S42.667 445.397 42.667 416 66.603 362.667 96 362.667s53.333 23.936 53.333 53.333zM192 74.667c0-29.397 23.936-53.333 53.333-53.333s53.333 23.936 53.333 53.333S274.731 128 245.333 128 192 104.064 192 74.667zm202.667 394.666c-29.397 0-53.333-23.936-53.333-53.333s23.936-53.333 53.333-53.333S448 386.603 448 416s-23.936 53.333-53.333 53.333z" />
</symbol><symbol viewBox="0 0 32 32" id="chat">
    <path d="M2 5v16h4v5.094l1.625-1.313L12.344 21H22V5zm2 2h16v12h-8.344l-.281.219L8 21.906V19H4zm20 2v2h4v12h-4v2.906L20.344 23h-7.5l-2.5 2h9.312L26 30.094V25h4V9z" />
</symbol><symbol viewBox="0 0 24 24" id="check-box">
    <path d="M19 5v14H5V5h14m0-2H5c-1.1 0-2 .9-2 2v14c0 1.1.9 2 2 2h14c1.1 0 2-.9 2-2V5c0-1.1-.9-2-2-2z" />
</symbol><symbol viewBox="0 0 24 24" id="check-box-checked">
    <path d="M19 3H5c-1.1 0-2 .9-2 2v14c0 1.1.9 2 2 2h14c1.1 0 2-.9 2-2V5c0-1.1-.9-2-2-2zm0 16H5V5h14v14zM17.99 9l-1.41-1.42-6.59 6.59-2.58-2.57-1.42 1.41 4 3.99z" />
</symbol><symbol viewBox="0 0 24 24" id="check-box-out_">
    <path d="M19 5v14H5V5h14m0-2H5c-1.1 0-2 .9-2 2v14c0 1.1.9 2 2 2h14c1.1 0 2-.9 2-2V5c0-1.1-.9-2-2-2z" />
    <path fill="none" d="M0 0h24v24H0z" />
</symbol><symbol viewBox="0 0 24 24" id="check_box_checked_">
    <path fill="none" d="M0 0h24v24H0z" />
    <path d="M19 3H5a2 2 0 00-2 2v14a2 2 0 002 2h14a2 2 0 002-2V5a2 2 0 00-2-2zm-9 14l-5-5 1.41-1.41L10 14.17l7.59-7.59L19 8l-9 9z" />
</symbol><symbol viewBox="0 0 32 32" id="close">
    <path d="M8.719 7.281L7.28 8.72 14.563 16 7.28 23.281l1.44 1.439L16 17.437l7.281 7.282 1.438-1.438L17.437 16l7.282-7.281L23.28 7.28 16 14.563z" />
</symbol><symbol viewBox="0 0 32 32" id="contact">
    <path d="M6 4v5H5v2h3V6h16v20H8v-3H6v5h20V4zm10 6c-2.2 0-4 1.8-4 4 0 1.113.477 2.117 1.219 2.844A5.041 5.041 0 0011 21h2a3 3 0 016 0h2a5.041 5.041 0 00-2.219-4.156C19.523 16.117 20 15.114 20 14c0-2.2-1.8-4-4-4zM6 12v2H5v2h3v-4zm10 0c1.117 0 2 .883 2 2s-.883 2-2 2-2-.883-2-2 .883-2 2-2zM6 17v2H5v2h3v-4z" />
</symbol><symbol viewBox="0 0 32 32" id="dashboard">
    <path d="M16 5C9.383 5 4 10.383 4 17a11.92 11.92 0 003.781 8.719l.313.281h15.812l.313-.281A11.918 11.918 0 0028 17c0-6.617-5.383-12-12-12zm0 2c5.535 0 10 4.465 10 10 0 2.754-1.168 5.191-2.969 7H8.97C7.168 22.191 6 19.754 6 17c0-5.535 4.465-10 10-10zm0 1c-.55 0-1 .45-1 1s.45 1 1 1 1-.45 1-1-.45-1-1-1zm-4 1.063c-.55 0-1 .449-1 1 0 .55.45 1 1 1s1-.45 1-1c0-.551-.45-1-1-1zm8 0c-.55 0-1 .449-1 1 0 .55.45 1 1 1s1-.45 1-1c0-.551-.45-1-1-1zM9.062 12c-.55 0-1 .45-1 1s.45 1 1 1c.551 0 1-.45 1-1s-.449-1-1-1zm13.876 0a.996.996 0 00-.532.156L17 15.281A1.984 1.984 0 0016 15a1.999 1.999 0 100 4 2 2 0 002-2l5.313-3.094c.359-.152.625-.492.625-.906 0-.55-.45-1-1-1zM8 16c-.55 0-1 .45-1 1s.45 1 1 1 1-.45 1-1-.45-1-1-1zm16 0c-.55 0-1 .45-1 1s.45 1 1 1 1-.45 1-1-.45-1-1-1zM9.062 20c-.55 0-1 .45-1 1s.45 1 1 1c.551 0 1-.45 1-1s-.449-1-1-1zm13.876 0c-.551 0-1 .45-1 1s.449 1 1 1c.55 0 1-.45 1-1s-.45-1-1-1z" />
</symbol><symbol viewBox="0 0 50 50" id="download">
    <path d="M25 2C12.309 2 2 12.309 2 25s10.309 23 23 23 23-10.309 23-23S37.691 2 25 2zm0 2c11.61 0 21 9.39 21 21s-9.39 21-21 21S4 36.61 4 25 13.39 4 25 4zm-1 8v18h-6l7 7 7-7h-6V12z" />
</symbol><symbol viewBox="0 0 50 50" id="enter">
    <path d="M13 0c-1.644 0-3 1.354-3 3v19h2V3c0-.564.436-1 1-1h34c.564 0 1 .436 1 1v44c0 .563-.437 1-1 1H13c-.563 0-1-.437-1-1V28h-2v19c0 1.645 1.355 3 3 3h34c1.645 0 3-1.355 3-3V3c0-1.646-1.356-3-3-3H13zm9.043 13.1a1 1 0 00-.695 1.716L30.529 24H1a1 1 0 100 2h29.53l-9.184 9.184a1 1 0 101.414 1.414L34.357 25 22.762 13.402a1 1 0 00-.719-.302z" />
</symbol><symbol viewBox="0 0 32 32" id="icons8-clear-filters">
    <path d="M5 4v2.344l.219.281L13 16.344V28.03l1.594-1.25 1.562-1.187C16.906 29.234 20.145 32 24 32c4.406 0 8-3.594 8-8 0-4.406-3.594-8-8-8-1.887 0-3.629.68-5 1.781v-1.437l7.781-9.719.219-.281V4zm2.281 2H24.72l-7.188 9H14.47zM15 17h2v3.125a8.025 8.025 0 00-.969 3.063L15 24zm9 1c3.324 0 6 2.676 6 6s-2.676 6-6 6-6-2.676-6-6 2.676-6 6-6zm-2.281 2.281L20.28 21.72 22.563 24l-2.282 2.281 1.438 1.438L24 25.437l2.281 2.282 1.438-1.438L25.437 24l2.282-2.281-1.438-1.438L24 22.563z" />
</symbol><symbol viewBox="0 0 32 32" id="icons8-columns">
    <path d="M5 5v22h22V5zm2 2h8v18H7zm10 0h8v18h-8z" />
</symbol><symbol viewBox="0 0 32 32" id="icons8-conversion">
    <path d="M5 4v2.344l.219.281L13 16.344V28l1.594-1.188 4-3L19 23.5v-7.156l7.781-9.719.219-.281V4zm2.281 2H24.72l-1.594 2H8.875zm3.188 4H21.53l-4.312 5.375-.219.281V22.5L15 24v-8.344l-.219-.281z" />
</symbol><symbol viewBox="0 0 32 32" id="icons8-genealogy">
    <path d="M16 4c-1.105 0-2 .895-2 2 0 .738.402 1.371 1 1.719V10H7v4.281c-.598.348-1 .98-1 1.719 0 .738.402 1.371 1 1.719V20H3v4.281c-.598.348-1 .98-1 1.719a1.999 1.999 0 104 0c0-.738-.402-1.371-1-1.719V22h6v2.281c-.598.348-1 .98-1 1.719a1.999 1.999 0 104 0c0-.738-.402-1.371-1-1.719V20H9v-2.281c.598-.348 1-.98 1-1.719 0-.738-.402-1.371-1-1.719V12h14v2.281c-.598.348-1 .98-1 1.719 0 .738.402 1.371 1 1.719V20h-4v4.281c-.598.348-1 .98-1 1.719a1.999 1.999 0 104 0c0-.738-.402-1.371-1-1.719V22h6v2.281c-.598.348-1 .98-1 1.719a1.999 1.999 0 104 0c0-.738-.402-1.371-1-1.719V20h-4v-2.281c.598-.348 1-.98 1-1.719 0-.738-.402-1.371-1-1.719V10h-8V7.719c.598-.348 1-.98 1-1.719 0-1.105-.895-2-2-2z" />
</symbol><symbol viewBox="0 0 32 32" id="icons8-merge-files">
    <path d="M4 4v16h8v8h16V12h-8V4zm2 2h12v6.594l-.719.687 1.438 1.438.687-.719H26v12H14v-6.594l.719-.687-1.438-1.438-.687.719H6zm3.719 2.281L8.28 9.72l2.5 2.5L9 14h5V9l-1.781 1.781zm6.562 6l-2 2 1.438 1.438 2-2zM18 18v5l1.781-1.781 2.5 2.5 1.438-1.438-2.5-2.5L23 18z" />
</symbol><symbol viewBox="0 0 32 32" id="icons8-navigation-toolbar-left">
    <path d="M4 5v22h24V5zm2 2h7v18H6zm9 0h11v18H15zM8 9c-.55 0-1 .45-1 1s.45 1 1 1 1-.45 1-1-.45-1-1-1zm3 0c-.55 0-1 .45-1 1s.45 1 1 1 1-.45 1-1-.45-1-1-1zm-4 3v2h5v-2z" />
</symbol><symbol viewBox="0 0 32 32" id="icons8-right-navigation-toolbar">
    <path d="M4 5v22h24V5zm2 2h11v18H6zm13 0h7v18h-7zm2 2c-.55 0-1 .45-1 1s.45 1 1 1 1-.45 1-1-.45-1-1-1zm3 0c-.55 0-1 .45-1 1s.45 1 1 1 1-.45 1-1-.45-1-1-1zm-4 3v2h5v-2z" />
</symbol><symbol viewBox="0 0 32 32" id="icons8-send">
    <path d="M3 7v18h14v-2H5V9.867l11 7.336 11-7.336-.02 6.309 2 2L29 7zm4.305 2h17.394L16 14.797zM27.27 19.293l-1.415 1.414L28.148 23H19v2h9.148l-2.293 2.293 1.415 1.414L31.977 24z" />
</symbol><symbol viewBox="0 0 24 24" id="logo">
    <path d="M12 2c-4.959 0-9 4.041-9 9s4.041 9 9 9v3.092l1.54-.987c2.235-1.434 6.312-4.53 7.259-9.222.13-.605.201-1.235.201-1.883 0-4.959-4.041-9-9-9zm0 2a6.985 6.985 0 016.842 8.473l-.002.007-.002.006c-.594 2.948-2.866 5.12-4.838 6.653v-1.34l-1.125.14c-.3.038-.591.061-.875.061-3.877 0-7-3.123-7-7s3.123-7 7-7z" />
</symbol><symbol viewBox="0 0 32 32" id="menu-vertical">
    <path d="M16 6a2 2 0 100 4 2 2 0 000-4zm0 8a2 2 0 100 4 2 2 0 000-4zm0 8a2 2 0 100 4 2 2 0 000-4z" />
</symbol><symbol viewBox="0 0 32 32" id="note">
    <path d="M27 3.781l-1.188.25-16 3L9 7.156v13.407A3.93 3.93 0 007 20c-2.2 0-4 1.8-4 4s1.8 4 4 4 4-1.8 4-4V12.812l14-2.624v7.374A3.93 3.93 0 0023 17c-2.2 0-4 1.8-4 4s1.8 4 4 4 4-1.8 4-4zm-2 2.406v2l-14 2.626v-2zM23 19c1.117 0 2 .883 2 2s-.883 2-2 2-2-.883-2-2 .883-2 2-2zM7 22c1.117 0 2 .883 2 2s-.883 2-2 2-2-.883-2-2 .883-2 2-2z" />
</symbol><symbol viewBox="0 0 32 32" id="notification">
    <path d="M16 3a2 2 0 00-2 2c0 .086.02.168.031.25C10.574 6.133 8 9.273 8 13v9c0 .566-.434 1-1 1H6v2h7.188A2.95 2.95 0 0013 26c0 1.645 1.355 3 3 3s3-1.355 3-3a2.95 2.95 0 00-.188-1H26v-2h-1c-.566 0-1-.434-1-1v-8.719c0-3.758-2.512-7.11-6.031-8.031.011-.082.031-.164.031-.25a2 2 0 00-2-2zm-.438 4c.145-.012.29 0 .438 0h.188C19.453 7.098 22 9.96 22 13.281V22c0 .352.074.684.188 1H9.813A2.95 2.95 0 0010 22v-9a6.005 6.005 0 015.563-6zM16 25c.563 0 1 .438 1 1 0 .563-.438 1-1 1-.563 0-1-.438-1-1 0-.563.438-1 1-1z" />
</symbol><symbol viewBox="0 0 24 24" id="outline-indeterminate_check_box-24px">
    <path fill="none" d="M0 0h24v24H0z" />
    <path d="M19 3H5c-1.1 0-2 .9-2 2v14c0 1.1.9 2 2 2h14c1.1 0 2-.9 2-2V5c0-1.1-.9-2-2-2zm0 16H5V5h14v14zM7 11h10v2H7z" />
</symbol><symbol viewBox="0 0 24 24" id="outline-radio_button_checked-24px">
    <path fill="none" d="M0 0h24v24H0V0z" />
    <path d="M12 2C6.48 2 2 6.48 2 12s4.48 10 10 10 10-4.48 10-10S17.52 2 12 2zm0 18c-4.42 0-8-3.58-8-8s3.58-8 8-8 8 3.58 8 8-3.58 8-8 8z" />
    <circle cx="12" cy="12" r="5" />
</symbol><symbol viewBox="0 0 24 24" id="outline-radio_button_unchecked-24px">
    <path fill="none" d="M0 0h24v24H0V0z" />
    <path d="M12 2C6.48 2 2 6.48 2 12s4.48 10 10 10 10-4.48 10-10S17.52 2 12 2zm0 18c-4.42 0-8-3.58-8-8s3.58-8 8-8 8 3.58 8 8-3.58 8-8 8z" />
</symbol><symbol viewBox="0 0 24 24" id="outline-star-24px">
    <path d="M0 0h24v24H0V0zm0 0h24v24H0V0zm12 17.27L18.18 21l-1.64-7.03L22 9.24l-7.19-.61L12 2 9.19 8.63 2 9.24l5.46 4.73L5.82 21 12 17.27z" />
</symbol><symbol viewBox="0 0 24 24" id="outline-star_border-24px">
    <path fill="none" d="M0 0h24v24H0V0z" />
    <path d="M22 9.24l-7.19-.62L12 2 9.19 8.63 2 9.24l5.46 4.73L5.82 21 12 17.27 18.18 21l-1.63-7.03L22 9.24zM12 15.4l-3.76 2.27 1-4.28-3.32-2.88 4.38-.38L12 6.1l1.71 4.04 4.38.38-3.32 2.88 1 4.28L12 15.4z" />
</symbol><symbol viewBox="0 0 24 24" id="outline-star_half-24px">
    <path fill="none" d="M0 0h24v24H0z" />
    <path d="M22 9.24l-7.19-.62L12 2 9.19 8.63 2 9.24l5.46 4.73L5.82 21 12 17.27 18.18 21l-1.63-7.03L22 9.24zM12 15.4V6.1l1.71 4.04 4.38.38-3.32 2.88 1 4.28L12 15.4z" />
</symbol><symbol viewBox="0 0 24 24" id="outline-toggle_off-24px">
    <path fill="none" d="M0 0h24v24H0V0z" />
    <path d="M17 6H7c-3.31 0-6 2.69-6 6s2.69 6 6 6h10c3.31 0 6-2.69 6-6s-2.69-6-6-6zm0 10H7c-2.21 0-4-1.79-4-4s1.79-4 4-4h10c2.21 0 4 1.79 4 4s-1.79 4-4 4zM7 9c-1.66 0-3 1.34-3 3s1.34 3 3 3 3-1.34 3-3-1.34-3-3-3z" />
</symbol><symbol viewBox="0 0 24 24" id="outline-toggle_on-24px">
    <path fill="none" d="M0 0h24v24H0z" />
    <path d="M17 6H7c-3.31 0-6 2.69-6 6s2.69 6 6 6h10c3.31 0 6-2.69 6-6s-2.69-6-6-6zm0 10H7c-2.21 0-4-1.79-4-4s1.79-4 4-4h10c2.21 0 4 1.79 4 4s-1.79 4-4 4zm0-7c-1.66 0-3 1.34-3 3s1.34 3 3 3 3-1.34 3-3-1.34-3-3-3z" />
</symbol><symbol viewBox="0 0 32 32" id="pause">
    <path d="M10 6v20h2V6zm10 0v20h2V6z" />
</symbol><symbol viewBox="0 0 32 32" id="pipeline">
    <path d="M2.316 5l.809 1.477L16 30.09 29.684 5zm3.368 2h20.632l-2.703 4.957H8.387zm3.793 6.957H11V14c0 .55.45 1 1 1s1-.45 1-1v-.043h2V14c0 .55.45 1 1 1s1-.45 1-1v-.043h2V14c0 .55.45 1 1 1s1-.45 1-1v-.043h1.52l-2.88 5.281h-7.28zM14 16c-.55 0-1 .45-1 1s.45 1 1 1 1-.45 1-1-.45-1-1-1zm4 0c-.55 0-1 .45-1 1s.45 1 1 1 1-.45 1-1-.45-1-1-1z" />
</symbol><symbol viewBox="0 0 32 32" id="play">
    <path d="M9 5.156v21.688l1.531-1L25.844 16 10.53 6.156zm2 3.657L22.156 16 11 23.188z" />
</symbol><symbol viewBox="0 0 24 24" id="radio">
    <path d="M12 2C6.48 2 2 6.48 2 12s4.48 10 10 10 10-4.48 10-10S17.52 2 12 2zm0 18c-4.42 0-8-3.58-8-8s3.58-8 8-8 8 3.58 8 8-3.58 8-8 8z" />
</symbol><symbol viewBox="0 0 24 24" id="radio_checked">
    <path d="M12 7c-2.76 0-5 2.24-5 5s2.24 5 5 5 5-2.24 5-5-2.24-5-5-5zm0-5C6.48 2 2 6.48 2 12s4.48 10 10 10 10-4.48 10-10S17.52 2 12 2zm0 18c-4.42 0-8-3.58-8-8s3.58-8 8-8 8 3.58 8 8-3.58 8-8 8z" />
</symbol><symbol viewBox="0 0 100 100" id="ripple">
    <circle cx="1" cy="1" r="1" />
</symbol><symbol viewBox="0 0 50 50" id="search">
    <path d="M21 3C11.621 3 4 10.621 4 20s7.621 17 17 17c3.71 0 7.14-1.195 9.938-3.219l13.156 13.125 2.812-2.812-13-13.032A16.923 16.923 0 0038 20c0-9.379-7.621-17-17-17zm0 2c8.297 0 15 6.703 15 15s-6.703 15-15 15S6 28.297 6 20 12.703 5 21 5z" />
</symbol><symbol viewBox="0 0 24 24" id="send">
    <path d="M4.01 6.03l7.51 3.22-7.52-1 .01-2.22m7.5 8.72L4 17.97v-2.22l7.51-1M2.01 3L2 10l15 2-15 2 .01 7L23 12 2.01 3z" />
</symbol><symbol viewBox="0 0 32 32" id="send8">
    <path d="M3 7v18h14v-2H5V9.867l11 7.336 11-7.336-.02 6.309 2 2L29 7zm4.305 2h17.394L16 14.797zM27.27 19.293l-1.415 1.414L28.148 23H19v2h9.148l-2.293 2.293 1.415 1.414L31.977 24z" />
</symbol><symbol viewBox="0 0 32 32" id="settings">
    <path d="M13.188 3l-.157.813-.594 2.968a9.939 9.939 0 00-2.593 1.532l-2.906-1-.782-.25-.406.718-2 3.438-.406.719.594.53 2.25 1.97C6.104 14.948 6 15.46 6 16s.105 1.05.188 1.563l-2.25 1.968-.594.532.406.718 2 3.438.406.718.782-.25 2.906-1a9.939 9.939 0 002.594 1.532l.593 2.968.156.813h5.626l.156-.813.593-2.968a9.939 9.939 0 002.594-1.532l2.907 1 .78.25.407-.718 2-3.438.406-.718-.593-.532-2.25-1.968C25.895 17.05 26 16.538 26 16c0-.54-.105-1.05-.188-1.563l2.25-1.968.594-.531-.406-.72-2-3.437-.406-.718-.782.25-2.906 1a9.939 9.939 0 00-2.593-1.532l-.594-2.968L18.812 3zm1.624 2h2.376l.5 2.594.125.593.562.188a8.017 8.017 0 013.031 1.75l.438.406.562-.187 2.532-.875 1.187 2.031-2 1.781-.469.375.157.594c.128.57.187 1.152.187 1.75 0 .598-.059 1.18-.188 1.75l-.125.594.438.375 2 1.781-1.188 2.031-2.53-.875-.563-.187-.438.406a8.017 8.017 0 01-3.031 1.75l-.563.188-.125.593-.5 2.594h-2.375l-.5-2.594-.124-.593-.563-.188a8.017 8.017 0 01-3.031-1.75l-.438-.406-.562.187-2.531.875L5.875 20.5l2-1.781.469-.375-.156-.594A7.901 7.901 0 018 16c0-.598.059-1.18.188-1.75l.156-.594-.469-.375-2-1.781 1.188-2.031 2.53.875.563.187.438-.406a8.017 8.017 0 013.031-1.75l.563-.188.124-.593zM16 11c-2.75 0-5 2.25-5 5s2.25 5 5 5 5-2.25 5-5-2.25-5-5-5zm0 2c1.668 0 3 1.332 3 3s-1.332 3-3 3-3-1.332-3-3 1.332-3 3-3z" />
</symbol><symbol viewBox="0 0 24 24" id="sort">
    <path d="M3 18h6v-2H3v2zM3 6v2h18V6H3zm0 7h12v-2H3v2z" />
</symbol><symbol viewBox="0 0 32 32" id="stop">
    <path d="M6 6v20h20V6zm2 2h16v16H8z" />
</symbol><symbol viewBox="0 0 24 24" id="toggle_off">
    <path d="M17 7H7c-2.76 0-5 2.24-5 5s2.24 5 5 5h10c2.76 0 5-2.24 5-5s-2.24-5-5-5zM7 15c-1.66 0-3-1.34-3-3s1.34-3 3-3 3 1.34 3 3-1.34 3-3 3z" />
    <path fill="none" d="M0 0h24v24H0z" />
</symbol><symbol viewBox="0 0 24 24" id="toggle_on">
    <path d="M17 7H7c-2.76 0-5 2.24-5 5s2.24 5 5 5h10c2.76 0 5-2.24 5-5s-2.24-5-5-5zm0 8c-1.66 0-3-1.34-3-3s1.34-3 3-3 3 1.34 3 3-1.34 3-3 3z" />
    <path fill="none" d="M0 0h24v24H0z" />
</symbol><symbol viewBox="0 0 32 32" id="user">
    <path d="M16 4c-3.855 0-7 3.145-7 7a7.01 7.01 0 003.063 5.781A9.994 9.994 0 006 26h2c0-4.465 3.535-8 8-8s8 3.535 8 8h2a9.994 9.994 0 00-6.063-9.219A7.01 7.01 0 0023 11c0-3.855-3.145-7-7-7zm0 2c2.773 0 5 2.227 5 5s-2.227 5-5 5-5-2.227-5-5 2.227-5 5-5z" />
</symbol><symbol viewBox="0 0 50 50" id="validate">
    <path d="M20.064 2.523a1 1 0 00-.664.264l-3.552 3.256-4.737.789a1 1 0 00-.763.615l-1.776 4.438-3.945 2.763a1 1 0 00-.426.88l.297 4.835-2.367 4.14a1 1 0 000 .993l2.367 4.14-.297 4.837a1 1 0 00.426.879l3.945 2.763 1.776 4.438a1 1 0 00.763.615l4.737.789 3.552 3.256a1 1 0 00.961.22L25 46.054l4.639 1.38a1 1 0 00.96-.22l3.553-3.256 4.737-.789a1 1 0 00.763-.615l1.776-4.438 3.945-2.763a1 1 0 00.426-.88l-.297-4.835 2.367-4.14a1 1 0 000-.993l-2.367-4.14.297-4.837a1 1 0 00-.426-.879l-3.945-2.763-1.776-4.438a1 1 0 00-.763-.615l-4.737-.789L30.6 2.787a1 1 0 00-.961-.22L25 3.946l-4.639-1.38a1 1 0 00-.297-.044zm.27 2.122l4.38 1.304a1 1 0 00.571 0l4.381-1.304 3.354 3.074a1 1 0 00.511.248l4.473.746 1.678 4.191a1 1 0 00.355.448l3.73 2.613-.279 4.574a1 1 0 00.13.557L45.847 25l-2.23 3.904a1 1 0 00-.13.557l.28 4.574-3.73 2.613a1 1 0 00-.356.448l-1.678 4.191-4.473.746a1 1 0 00-.511.248l-3.354 3.074-4.38-1.304a1 1 0 00-.571 0l-4.381 1.304-3.354-3.074a1 1 0 00-.511-.248l-4.473-.746-1.678-4.191a1 1 0 00-.355-.448l-3.73-2.613.279-4.574a1 1 0 00-.13-.557L4.153 25l2.23-3.904a1 1 0 00.13-.557l-.28-4.574 3.73-2.613a1 1 0 00.356-.448l1.678-4.191 4.473-.746a1 1 0 00.511-.248l3.354-3.074zm13.725 9.814l-10.961 17.01-7.328-6.612-1.34 1.485 9.074 8.19L35.74 15.54l-1.681-1.082z" />
</symbol></defs></svg>