<svg viewBox="0 0 32 32">
    <path d="M16 4a2 2 0 00-2 2c0 .738.402 1.371 1 1.719V10H7v4.281c-.598.348-1 .98-1 1.719 0 .738.402 1.371 1 1.719V20H3v4.281c-.598.348-1 .98-1 1.719a1.999 1.999 0 104 0c0-.738-.402-1.371-1-1.719V22h6v2.281c-.598.348-1 .98-1 1.719a1.999 1.999 0 104 0c0-.738-.402-1.371-1-1.719V20H9v-2.281c.598-.348 1-.98 1-1.719 0-.738-.402-1.371-1-1.719V12h14v2.281c-.598.348-1 .98-1 1.719 0 .738.402 1.371 1 1.719V20h-4v4.281c-.598.348-1 .98-1 1.719a1.999 1.999 0 104 0c0-.738-.402-1.371-1-1.719V22h6v2.281c-.598.348-1 .98-1 1.719a1.999 1.999 0 104 0c0-.738-.402-1.371-1-1.719V20h-4v-2.281c.598-.348 1-.98 1-1.719 0-.738-.402-1.371-1-1.719V10h-8V7.719c.598-.348 1-.98 1-1.719a2 2 0 00-2-2z"/>
</svg>
