<svg viewBox="0 0 32 32">
    <path d="M5 4v2.344l.219.281L13 16.344V28.03l1.594-1.25 1.562-1.187C16.906 29.234 20.145 32 24 32c4.406 0 8-3.594 8-8 0-4.406-3.594-8-8-8-1.887 0-3.629.68-5 1.781v-1.437l7.781-9.719.219-.281V4zm2.281 2H24.72l-7.188 9H14.47zM15 17h2v3.125a8.025 8.025 0 00-.969 3.063L15 24zm9 1c3.324 0 6 2.676 6 6s-2.676 6-6 6-6-2.676-6-6 2.676-6 6-6zm-2.281 2.281L20.28 21.72 22.563 24l-2.282 2.281 1.438 1.438L24 25.437l2.281 2.282 1.438-1.438L25.437 24l2.282-2.281-1.438-1.438L24 22.563z"/>
</svg>
